<?xml version="1.0" encoding="iso-8859-1"?>
<!-- Generator: Adobe Illustrator 19.0.0, SVG Export Plug-In . SVG Version: 6.00 Build 0)  -->
<svg version="1.1" id="Capa_1" xmlns="http://www.w3.org/2000/svg" xmlns:xlink="http://www.w3.org/1999/xlink" x="0px" y="0px"
	 viewBox="0 0 511.88 511.88" style="enable-background:new 0 0 511.88 511.88;" xml:space="preserve">
<g>
	<g>
		<g>
			<path d="M477.728,127.289c-0.018-0.263-0.061-0.511-0.104-0.773c-0.137-0.902-0.418-1.776-0.834-2.589
				c-0.037-0.071-0.031-0.15-0.071-0.22l-0.043-0.051c-0.503-0.852-1.152-1.609-1.916-2.237c-0.212-0.177-0.434-0.344-0.663-0.498
				c-0.224-0.156-0.411-0.354-0.653-0.49L260.111,0.965c-0.292-0.114-0.591-0.21-0.894-0.289c-1.021-0.473-2.137-0.703-3.262-0.674
				c-0.542-0.009-1.084,0.036-1.617,0.135c-0.564,0.119-1.114,0.296-1.641,0.529c-0.315,0.081-0.625,0.18-0.928,0.299
				L38.436,120.432c-0.239,0.161-0.47,0.334-0.692,0.519c-0.216,0.151-0.42,0.295-0.622,0.467c-0.766,0.629-1.416,1.388-1.919,2.242
				l-0.054,0.063c-0.047,0.085-0.041,0.181-0.085,0.266c-0.403,0.799-0.676,1.656-0.809,2.541c-0.042,0.262-0.087,0.51-0.104,0.773
				c-0.013,0.193-0.076,0.375-0.076,0.57v128v128c0,3.087,1.669,5.934,4.362,7.442l213.23,119.408l0.051,0.029l0.053,0.03
				c0.365,0.18,0.743,0.333,1.131,0.457c0.943,0.466,1.989,0.685,3.039,0.635l0.004,0l0.004,0c0.731-0.002,1.46-0.099,2.166-0.288
				c0.248-0.066,0.477-0.201,0.719-0.29c0.439-0.136,0.866-0.308,1.277-0.514l213.333-119.467c2.694-1.508,4.362-4.354,4.362-7.442
				v-256C477.807,127.673,477.742,127.487,477.728,127.289z M247.407,488.782L51.14,378.873v-65.777l196.267,109.909V488.782z
				 M247.407,403.451L51.14,293.542v-37.668v-28.11l196.267,109.909V403.451z M247.407,318.117L51.14,208.208v-65.774
				L247.407,252.34V318.117z M255.945,237.56L60.072,127.871L255.94,18.184l195.873,109.69L255.945,237.56z M460.74,378.873
				l-196.267,109.91v-65.779L460.74,313.096V378.873z M460.74,293.542L264.474,403.451v-65.779L460.74,227.763V293.542z
				 M460.74,208.208L264.474,318.117v-65.779L460.74,142.43V208.208z"/>
			<path d="M102.34,119.34c-4.713,0-8.533,3.82-8.533,8.533c-0.023,2.27,0.869,4.454,2.475,6.059c2.441,2.444,6.125,3.154,9.3,1.792
				c1.034-0.433,1.987-1.039,2.817-1.792c0.751-0.832,1.357-1.784,1.792-2.817c0.478-1.012,0.713-2.123,0.683-3.242
				C110.874,123.161,107.053,119.34,102.34,119.34z"/>
			<path d="M153.54,93.74c-4.713,0-8.533,3.82-8.533,8.533v51.2c-0.001,2.263,0.898,4.434,2.499,6.035
				c1.6,1.6,3.771,2.499,6.035,2.499c2.263,0.001,4.434-0.898,6.035-2.499c1.6-1.6,2.499-3.771,2.499-6.035v-51.2
				C162.074,97.561,158.253,93.74,153.54,93.74z"/>
			<path d="M204.74,68.14c-4.713,0-8.533,3.82-8.533,8.533v102.4c-0.001,2.263,0.898,4.434,2.499,6.035
				c1.6,1.6,3.771,2.499,6.035,2.499c2.263,0.001,4.434-0.898,6.035-2.499c1.6-1.6,2.499-3.771,2.499-6.035v-102.4
				C213.274,71.961,209.453,68.14,204.74,68.14z"/>
			<path d="M417.39,124.632c-1.251-3.247-4.372-5.389-7.852-5.389s-6.601,2.142-7.852,5.389c-1.122,2.625-0.844,5.638,0.74,8.013
				c1.584,2.375,4.259,3.789,7.114,3.762c2.855,0.03,5.532-1.385,7.115-3.761C418.239,130.271,418.516,127.256,417.39,124.632z"/>
			<path d="M358.34,93.74c-4.713,0-8.533,3.82-8.533,8.533v51.2c-0.001,2.263,0.898,4.434,2.499,6.035
				c1.6,1.6,3.771,2.499,6.035,2.499c2.263,0.001,4.434-0.898,6.035-2.499c1.6-1.6,2.499-3.771,2.499-6.035v-51.2
				C366.874,97.561,363.053,93.74,358.34,93.74z"/>
			<path d="M307.14,68.14c-4.713,0-8.533,3.82-8.533,8.533v102.4c-0.001,2.263,0.898,4.434,2.499,6.035
				c1.6,1.6,3.771,2.499,6.035,2.499c2.263,0.001,4.434-0.898,6.035-2.499c1.6-1.6,2.499-3.771,2.499-6.035v-102.4
				C315.674,71.961,311.853,68.14,307.14,68.14z"/>
			<path d="M255.94,42.54c-4.713,0-8.533,3.82-8.533,8.533v153.6c-0.001,2.263,0.898,4.434,2.499,6.035
				c1.6,1.6,3.771,2.499,6.035,2.499c2.263,0.001,4.434-0.898,6.035-2.499c1.6-1.6,2.499-3.771,2.499-6.035v-153.6
				C264.474,46.361,260.653,42.54,255.94,42.54z"/>
		</g>
	</g>
</g>
<g>
</g>
<g>
</g>
<g>
</g>
<g>
</g>
<g>
</g>
<g>
</g>
<g>
</g>
<g>
</g>
<g>
</g>
<g>
</g>
<g>
</g>
<g>
</g>
<g>
</g>
<g>
</g>
<g>
</g>
</svg>
