<svg enable-background="new 0 0 32 32" viewBox="0 0 32 32" xmlns="http://www.w3.org/2000/svg"><g id="Guide" display="none"><g display="inline"/></g><g id="Master" style="display:none;fill:none;stroke:#000;stroke-width:2;stroke-linecap:round;stroke-linejoin:round;stroke-miterlimit:10"><path d="m25 13c0 8-9 15-9 15s-9-7-9-15c0-4.97 4.03-9 9-9s9 4.03 9 9z" display="inline"/><circle cx="16" cy="13" display="inline" r="4"/><path d="m22 28h-12" display="inline"/></g><g id="Glyph" display="none"><g display="inline"><circle cx="16" cy="13" r="3"/><path d="m22 27h-3.37c2.77-2.66 7.37-7.99 7.37-14 0-5.51-4.49-10-10-10s-10 4.49-10 10c0 6.01 4.6 11.34 7.37 14h-3.37c-.55 0-1 .45-1 1s.45 1 1 1h12c.55 0 1-.45 1-1s-.45-1-1-1zm-11-14c0-2.76 2.24-5 5-5s5 2.24 5 5-2.24 5-5 5-5-2.24-5-5z"/></g></g><g id="Outline"><g><path d="m21 13c0-2.76-2.24-5-5-5s-5 2.24-5 5 2.24 5 5 5 5-2.24 5-5zm-5 3c-1.65 0-3-1.35-3-3s1.35-3 3-3 3 1.35 3 3-1.35 3-3 3z"/><path d="m22 27h-4.32c2.51-1.97 8.32-7.24 8.32-14 0-5.51-4.49-10-10-10s-10 4.49-10 10c0 6.76 5.81 12.03 8.32 14h-4.32c-.55 0-1 .45-1 1s.45 1 1 1h12c.55 0 1-.45 1-1s-.45-1-1-1zm-14-14c0-4.41 3.59-8 8-8s8 3.59 8 8c0 6.25-6.1 11.34-8 12.77-1.9-1.43-8-6.52-8-12.77z"/></g></g></svg>